<?xml version="1.0" encoding="iso-8859-1"?>
<!-- Uploaded to: SVG Repo, www.svgrepo.com, Generator: SVG Repo Mixer Tools -->
<svg fill="#fd2331" height="800px" width="800px" version="1.1" id="Layer_1" xmlns="http://www.w3.org/2000/svg" xmlns:xlink="http://www.w3.org/1999/xlink" 
	 viewBox="0 0 512 512" xml:space="preserve">
<g>
	<g>
		<g>
			<path d="M21.333,192C9.557,192,0,201.557,0,213.333v85.333C0,310.443,9.557,320,21.333,320s21.333-9.557,21.333-21.333v-85.333
				C42.667,201.557,33.109,192,21.333,192z"/>
			<path d="M85.333,149.333c-11.776,0-21.333,9.557-21.333,21.333v170.667c0,11.776,9.557,21.333,21.333,21.333
				s21.333-9.557,21.333-21.333V170.667C106.667,158.891,97.109,149.333,85.333,149.333z"/>
			<path d="M490.667,192c-11.776,0-21.333,9.557-21.333,21.333v85.333c0,11.776,9.557,21.333,21.333,21.333
				c11.797,0,21.333-9.557,21.333-21.333v-85.333C512,201.557,502.464,192,490.667,192z"/>
			<path d="M426.667,149.333c-11.776,0-21.333,9.557-21.333,21.333v170.667c0,11.776,9.557,21.333,21.333,21.333
				S448,353.109,448,341.333V170.667C448,158.891,438.443,149.333,426.667,149.333z"/>
			<path d="M362.667,106.667c-11.776,0-21.333,9.557-21.333,21.333v64H170.667v-64c0-11.776-9.557-21.333-21.333-21.333
				S128,116.224,128,128v85.333v85.333V384c0,11.776,9.557,21.333,21.333,21.333s21.333-9.557,21.333-21.333v-64h170.667v64
				c0,11.776,9.557,21.333,21.333,21.333S384,395.776,384,384v-85.333v-85.333V128C384,116.224,374.443,106.667,362.667,106.667z"/>
		</g>
	</g>
</g>
</svg>
