<svg width="108" height="24" viewBox="0 0 108 24" fill="white" xmlns="http://www.w3.org/2000/svg">
<path d="M80.5877 6.57418C79.2345 6.57418 77.9361 7.12761 76.993 8.09949V2.95663C76.993 2.79465 76.8563 2.65967 76.6923 2.65967H74.8608C74.6967 2.65967 74.5601 2.79465 74.5601 2.95663V16.8599C74.5601 17.0219 74.6967 17.1569 74.8608 17.1569H76.6923C76.8563 17.1569 76.993 17.0219 76.993 16.8599V15.9015C77.9361 16.8734 79.2209 17.4268 80.5877 17.4268C83.4443 17.4268 85.7542 14.9971 85.7542 12.0005C85.7542 9.00387 83.4443 6.57418 80.5877 6.57418ZM80.164 15.2536C78.4281 15.2536 77.0203 13.8228 77.0066 12.041V11.96C77.034 10.1782 78.4281 8.74741 80.164 8.74741C81.9135 8.74741 83.3213 10.2052 83.3213 12.0005C83.3213 13.7958 81.8998 15.2536 80.164 15.2536Z" fill="white"></path>
<path d="M92.4916 6.57422C89.4026 6.57422 86.9014 9.00391 86.9014 12.0005C86.9014 14.9972 89.4026 17.4269 92.4916 17.4269C95.5806 17.4269 98.0819 14.9972 98.0819 12.0005C98.0819 9.00391 95.5806 6.57422 92.4916 6.57422ZM92.4779 15.2536C90.7284 15.2536 89.3206 13.7958 89.3206 12.0005C89.3206 10.2053 90.7421 8.74745 92.4779 8.74745C94.2138 8.74745 95.6353 10.2053 95.6353 12.0005C95.6353 13.7958 94.2138 15.2536 92.4779 15.2536Z" fill="white"></path>
<path d="M58.308 6.84419H56.4765C56.3125 6.84419 56.1758 6.97917 56.1758 7.14115V8.09953C55.2327 7.12765 53.9479 6.57422 52.5811 6.57422C49.7245 6.57422 47.4146 9.00391 47.4146 12.0005C47.4146 14.9972 49.7245 17.4269 52.5811 17.4269C53.9342 17.4269 55.2327 16.8734 56.1758 15.9016V16.8599C56.1758 17.0219 56.3125 17.1569 56.4765 17.1569H58.308C58.472 17.1569 58.6087 17.0219 58.6087 16.8599V7.14115C58.6087 6.97917 58.472 6.84419 58.308 6.84419ZM53.0048 15.2536C51.2553 15.2536 49.8475 13.7958 49.8475 12.0005C49.8475 10.2053 51.2689 8.74745 53.0048 8.74745C54.7406 8.74745 56.1484 10.1783 56.1621 11.96V12.041C56.1484 13.8228 54.7406 15.2536 53.0048 15.2536Z" fill="white"></path>
<path d="M67.4519 6.57422C66.0988 6.57422 64.8003 7.12765 63.8572 8.09953V7.14115C63.8572 6.97917 63.7206 6.84419 63.5565 6.84419H61.725C61.561 6.84419 61.4243 6.97917 61.4243 7.14115V21.0444C61.4243 21.2064 61.561 21.3414 61.725 21.3414H63.5565C63.7206 21.3414 63.8572 21.2064 63.8572 21.0444V15.9016C64.8003 16.8734 66.0851 17.4269 67.4519 17.4269C70.3086 17.4269 72.6185 14.9972 72.6185 12.0005C72.6185 9.00392 70.3086 6.57422 67.4519 6.57422ZM67.0282 15.2536C65.2924 15.2536 63.8846 13.8228 63.8709 12.041V11.96C63.8982 10.1783 65.2924 8.74745 67.0282 8.74745C68.7777 8.74745 70.1856 10.2053 70.1856 12.0005C70.1856 13.7958 68.7777 15.2536 67.0282 15.2536Z" fill="white"></path>
<path d="M41.9337 6.57415C40.5669 6.58764 39.3231 7.37055 38.7354 8.59889C38.0656 7.34355 36.7262 6.56065 35.291 6.57415C34.1702 6.57415 33.1178 7.11408 32.4617 8.00497V7.14108C32.4617 6.9791 32.325 6.84411 32.161 6.84411H30.3295C30.1655 6.84411 30.0288 6.9791 30.0288 7.14108V16.8599C30.0288 17.0218 30.1655 17.1568 30.3295 17.1568H32.161C32.325 17.1568 32.4617 17.0218 32.4617 16.8599V11.0421C32.5301 9.74625 33.4458 8.70688 34.5666 8.70688C35.7284 8.70688 36.6988 9.66526 36.6988 10.9206V16.8599C36.6988 17.0218 36.8355 17.1568 36.9995 17.1568H38.8447C39.0087 17.1568 39.1454 17.0218 39.1454 16.8599L39.1317 10.8126C39.2958 9.62477 40.1569 8.70688 41.2093 8.70688C42.3711 8.70688 43.3415 9.66526 43.3415 10.9206V16.8599C43.3415 17.0218 43.4782 17.1568 43.6422 17.1568H45.4874C45.6514 17.1568 45.7881 17.0218 45.7881 16.8599L45.7744 10.1782C45.7744 8.18045 44.0523 6.57415 41.9337 6.57415Z" fill="white"></path>
<path d="M107.937 16.7383L104.766 11.9734L107.909 7.24901C107.991 7.12753 107.95 6.95205 107.827 6.87106C107.786 6.84406 107.732 6.83057 107.677 6.83057H105.558C105.394 6.83057 105.244 6.91156 105.162 7.04654L103.317 10.1107L101.472 7.06004C101.39 6.92505 101.239 6.84406 101.075 6.84406H98.9567C98.8063 6.84406 98.6833 6.96555 98.6833 7.11403C98.6833 7.16802 98.697 7.22202 98.7243 7.26251L101.868 11.9869L98.697 16.7518C98.615 16.8733 98.656 17.0488 98.779 17.1298C98.82 17.1568 98.8746 17.1703 98.9293 17.1703H101.048C101.212 17.1703 101.362 17.0893 101.444 16.9543L103.33 13.8497L105.217 16.9543C105.299 17.0893 105.449 17.1703 105.613 17.1703H107.704C107.855 17.1703 107.978 17.0488 107.978 16.9003C107.978 16.8463 107.964 16.7923 107.937 16.7383Z" fill="white"></path>
<path d="M12.1509 0C5.43989 0 0 5.37233 0 12C0 18.6277 5.43989 24 12.1509 24C18.8619 24 24.3018 18.6277 24.3018 12C24.3018 5.37233 18.8619 0 12.1509 0ZM17.9188 14.9426C13.7638 19.0461 6.34199 17.7368 6.34199 17.7368C6.34199 17.7368 5.00251 10.4207 9.17128 6.30371C11.4812 4.0225 15.3082 4.11699 17.7275 6.49269C20.1467 8.86839 20.2287 12.6614 17.9188 14.9426Z" fill="white"></path>
<path d="M13.5444 7.0332L12.3553 9.4494L9.90869 10.6238L12.3553 11.7981L13.5444 14.2143L14.7335 11.7981L17.1801 10.6238L14.7335 9.4494L13.5444 7.0332Z" fill="white"></path>
</svg>